<svg width="581" height="411" viewBox="0 0 581 561" fill="none" xmlns="http://www.w3.org/2000/svg">
<g clip-path="url(#clip0)">
<path d="M530.067 560.44V504.18C530.067 504.18 552.023 544.066 530.067 560.44Z" fill="#F1F1F1"/>
<path d="M531.423 560.43L489.92 522.384C489.92 522.384 534.192 533.206 531.423 560.43Z" fill="#F1F1F1"/>
<path d="M385.039 248.239L164.8 376.778C164.029 377.226 163.112 377.352 162.249 377.125C161.386 376.899 160.648 376.341 160.197 375.572L18.5686 133.595C18.1193 132.825 17.994 131.909 18.2204 131.047C18.4467 130.185 19.0062 129.448 19.776 128.998L240.015 0.458542C240.786 0.0098359 241.703 -0.115224 242.566 0.110798C243.429 0.336819 244.167 0.895467 244.619 1.66418L386.246 243.641C386.696 244.411 386.821 245.327 386.595 246.189C386.368 247.051 385.809 247.788 385.039 248.239Z" fill="white"/>
<path d="M385.039 248.239L164.8 376.778C164.029 377.226 163.112 377.352 162.249 377.125C161.386 376.899 160.648 376.341 160.197 375.572L18.5686 133.595C18.1193 132.825 17.994 131.909 18.2204 131.047C18.4467 130.185 19.0062 129.448 19.776 128.998L240.015 0.458542C240.786 0.0098359 241.703 -0.115224 242.566 0.110798C243.429 0.336819 244.167 0.895467 244.619 1.66418L386.246 243.641C386.696 244.411 386.821 245.327 386.595 246.189C386.368 247.051 385.809 247.788 385.039 248.239ZM20.4553 130.158C19.9934 130.429 19.6577 130.871 19.5219 131.388C19.3861 131.905 19.4612 132.455 19.7309 132.917L161.359 374.894C161.629 375.355 162.072 375.69 162.59 375.826C163.108 375.962 163.659 375.886 164.121 375.617L384.36 247.078C384.822 246.808 385.157 246.366 385.293 245.848C385.429 245.331 385.354 244.782 385.084 244.32L243.456 2.34245C243.186 1.8812 242.743 1.54599 242.225 1.41038C241.707 1.27476 241.157 1.34981 240.694 1.61906L20.4553 130.158Z" fill="#3F3D56"/>
<path d="M162.026 154.256L107.402 186.136C106.631 186.585 105.713 186.71 104.85 186.484C103.987 186.258 103.249 185.699 102.798 184.931L70.8723 130.384C70.423 129.614 70.2977 128.698 70.5241 127.836C70.7504 126.974 71.3099 126.237 72.0797 125.787L126.704 93.9065C127.474 93.4578 128.392 93.3328 129.255 93.5588C130.118 93.7848 130.856 94.3435 131.307 95.1122L163.233 149.659C163.682 150.428 163.808 151.345 163.581 152.206C163.355 153.068 162.795 153.805 162.026 154.256ZM72.759 126.948C72.2971 127.218 71.9614 127.66 71.8256 128.177C71.6898 128.694 71.7649 129.244 72.0346 129.706L103.96 184.252C104.231 184.714 104.674 185.049 105.192 185.184C105.709 185.32 106.26 185.245 106.723 184.976L161.346 153.095C161.808 152.825 162.144 152.383 162.28 151.866C162.416 151.349 162.34 150.799 162.071 150.337L130.145 95.7905C129.874 95.3292 129.432 94.994 128.914 94.8584C128.396 94.7228 127.845 94.7979 127.383 95.0671L72.759 126.948Z" fill="#F2F2F2"/>
<path d="M150.242 170.086L95.6177 201.967C94.9239 202.37 94.0981 202.483 93.3213 202.28C92.5446 202.076 91.8804 201.573 91.4744 200.882L59.5486 146.335C59.1442 145.642 59.0315 144.818 59.2352 144.042C59.4389 143.266 59.9424 142.603 60.6353 142.198L115.259 110.317C115.953 109.913 116.779 109.801 117.556 110.004C118.332 110.208 118.997 110.71 119.402 111.402L151.328 165.949C151.733 166.641 151.845 167.466 151.642 168.242C151.438 169.017 150.934 169.681 150.242 170.086Z" fill="#6C63FF"/>
<path d="M282.086 128.948L111.241 228.659C110.547 229.064 109.721 229.177 108.944 228.974C108.167 228.77 107.503 228.267 107.098 227.574C106.692 226.882 106.579 226.057 106.783 225.281C106.987 224.505 107.491 223.842 108.184 223.437L279.029 123.726C279.373 123.525 279.752 123.394 280.146 123.341C280.54 123.287 280.941 123.311 281.326 123.411C281.711 123.512 282.072 123.688 282.389 123.928C282.705 124.168 282.972 124.468 283.173 124.811C283.373 125.154 283.504 125.533 283.558 125.926C283.612 126.32 283.588 126.72 283.487 127.104C283.386 127.489 283.211 127.849 282.97 128.166C282.73 128.482 282.429 128.748 282.086 128.948Z" fill="#CCCCCC"/>
<path d="M251.356 171.017L121.77 246.648C121.426 246.849 121.047 246.98 120.653 247.034C120.259 247.087 119.858 247.063 119.473 246.963C118.696 246.759 118.032 246.256 117.626 245.563C117.221 244.871 117.108 244.046 117.311 243.27C117.515 242.494 118.019 241.831 118.713 241.426L248.299 165.795C248.643 165.594 249.022 165.463 249.416 165.409C249.81 165.355 250.211 165.379 250.596 165.48C250.981 165.581 251.342 165.756 251.659 165.996C251.976 166.237 252.242 166.537 252.443 166.88C252.643 167.223 252.774 167.602 252.828 167.995C252.882 168.389 252.858 168.789 252.757 169.173C252.657 169.557 252.481 169.918 252.24 170.234C252 170.551 251.699 170.817 251.356 171.017V171.017Z" fill="#CCCCCC"/>
<path d="M242.786 63.1355L167.243 107.225C166.549 107.63 165.723 107.743 164.946 107.54C164.169 107.336 163.505 106.833 163.099 106.14C162.694 105.448 162.581 104.623 162.785 103.847C162.988 103.071 163.492 102.408 164.186 102.003L239.73 57.9129C240.423 57.5082 241.249 57.3951 242.026 57.5986C242.411 57.6993 242.772 57.8748 243.089 58.1149C243.406 58.355 243.672 58.6551 243.873 58.998C244.074 59.3409 244.205 59.72 244.259 60.1135C244.313 60.507 244.289 60.9073 244.188 61.2915C244.087 61.6757 243.911 62.0362 243.671 62.3526C243.43 62.669 243.13 62.935 242.786 63.1355Z" fill="#CCCCCC"/>
<path d="M234.462 92.1275L177.771 125.214C177.428 125.415 177.048 125.545 176.654 125.599C176.26 125.653 175.859 125.629 175.475 125.528C175.09 125.428 174.729 125.252 174.412 125.012C174.095 124.772 173.829 124.472 173.628 124.129C173.427 123.786 173.296 123.407 173.242 123.014C173.188 122.62 173.212 122.22 173.313 121.836C173.414 121.451 173.59 121.091 173.83 120.774C174.071 120.458 174.371 120.192 174.715 119.992L231.405 86.905C232.099 86.5002 232.925 86.3872 233.702 86.5906C234.479 86.7941 235.143 87.2975 235.548 87.9901C235.954 88.6826 236.067 89.5076 235.863 90.2835C235.66 91.0595 235.155 91.7228 234.462 92.1275Z" fill="#CCCCCC"/>
<path d="M303.143 164.926L132.298 264.637C131.605 265.042 130.779 265.155 130.002 264.951C129.225 264.748 128.56 264.244 128.155 263.552C127.75 262.859 127.636 262.034 127.84 261.258C128.044 260.482 128.548 259.819 129.242 259.414L300.087 159.703C300.78 159.298 301.606 159.185 302.383 159.389C303.16 159.592 303.825 160.096 304.23 160.788C304.635 161.481 304.748 162.306 304.545 163.082C304.341 163.858 303.837 164.521 303.143 164.926V164.926Z" fill="#CCCCCC"/>
<path d="M272.413 206.994L142.827 282.626C142.484 282.826 142.104 282.957 141.71 283.011C141.316 283.065 140.915 283.041 140.53 282.94C140.146 282.839 139.784 282.664 139.468 282.424C139.151 282.184 138.884 281.884 138.684 281.541C138.483 281.198 138.352 280.819 138.298 280.425C138.244 280.032 138.268 279.631 138.369 279.247C138.47 278.863 138.645 278.502 138.886 278.186C139.126 277.87 139.427 277.604 139.77 277.403L269.357 201.772C269.7 201.572 270.08 201.441 270.474 201.387C270.868 201.333 271.269 201.357 271.653 201.458C272.038 201.558 272.399 201.734 272.716 201.974C273.033 202.214 273.299 202.514 273.5 202.857C273.701 203.2 273.832 203.579 273.886 203.972C273.94 204.366 273.916 204.766 273.815 205.15C273.714 205.535 273.538 205.895 273.298 206.212C273.057 206.528 272.757 206.794 272.413 206.994V206.994Z" fill="#CCCCCC"/>
<path d="M324.201 200.903L153.356 300.614C153.012 300.815 152.633 300.946 152.239 301C151.845 301.054 151.444 301.03 151.059 300.929C150.674 300.828 150.313 300.653 149.996 300.412C149.679 300.172 149.413 299.872 149.212 299.529C149.012 299.186 148.881 298.807 148.827 298.414C148.773 298.02 148.797 297.62 148.898 297.236C148.998 296.852 149.174 296.491 149.415 296.175C149.655 295.858 149.956 295.592 150.299 295.392L321.144 195.681C321.487 195.48 321.867 195.349 322.261 195.295C322.655 195.241 323.056 195.266 323.441 195.366C323.825 195.467 324.186 195.642 324.503 195.883C324.82 196.123 325.087 196.423 325.287 196.766C325.488 197.109 325.619 197.488 325.673 197.881C325.727 198.275 325.703 198.675 325.602 199.059C325.501 199.443 325.325 199.804 325.085 200.12C324.845 200.437 324.544 200.703 324.201 200.903Z" fill="#CCCCCC"/>
<path d="M334.729 218.892L163.884 318.603C163.541 318.803 163.161 318.934 162.767 318.988C162.373 319.042 161.972 319.018 161.588 318.917C161.203 318.817 160.842 318.641 160.525 318.401C160.208 318.161 159.942 317.861 159.741 317.518C159.54 317.175 159.409 316.796 159.355 316.403C159.301 316.009 159.325 315.609 159.426 315.225C159.527 314.84 159.703 314.48 159.943 314.163C160.184 313.847 160.484 313.581 160.828 313.381L331.673 213.669C332.016 213.469 332.396 213.338 332.79 213.284C333.184 213.23 333.585 213.254 333.969 213.355C334.354 213.456 334.715 213.631 335.032 213.871C335.349 214.111 335.615 214.412 335.816 214.754C336.017 215.097 336.148 215.476 336.202 215.87C336.256 216.263 336.232 216.664 336.131 217.048C336.03 217.432 335.854 217.793 335.614 218.109C335.373 218.426 335.073 218.692 334.729 218.892Z" fill="#CCCCCC"/>
<path d="M279.482 288.92C281.855 286.129 283.992 283.145 285.869 279.999C287.553 277.161 289.204 274.127 289.575 270.799C289.765 269.382 289.617 267.94 289.144 266.591C288.67 265.241 287.885 264.022 286.851 263.033C285.851 262.113 284.584 261.535 283.234 261.382C281.883 261.228 280.519 261.508 279.338 262.181C278.143 262.865 277.156 263.86 276.481 265.059C275.806 266.259 275.468 267.618 275.504 268.993C275.601 270.508 276.039 271.98 276.785 273.302C277.532 274.623 278.568 275.76 279.815 276.626C284.865 280.279 292.751 280.088 298.134 277.308C304.196 274.176 307.328 265.983 302.566 260.375C301.575 259.208 299.926 260.512 300.175 261.77C300.489 263.47 301.442 264.986 302.838 266.007C304.234 267.029 305.968 267.48 307.686 267.268C309.404 267.056 310.976 266.197 312.081 264.867C313.186 263.536 313.741 261.835 313.632 260.11L311.491 261.359C314.116 262.52 317.001 262.971 319.855 262.665C322.71 262.359 325.433 261.308 327.752 259.617C328.899 258.785 329.923 257.797 330.795 256.68C331.843 255.315 333.603 254.433 335.029 253.449L345.302 246.361C346.813 245.319 345.376 242.834 343.853 243.885L334.549 250.305C332.998 251.374 331.438 252.431 329.897 253.514C328.795 254.289 328.118 255.539 327.115 256.459C325.218 258.163 322.874 259.294 320.357 259.719C317.84 260.144 315.254 259.846 312.9 258.86C312.681 258.742 312.435 258.683 312.186 258.687C311.937 258.692 311.694 258.76 311.479 258.885C311.264 259.011 311.085 259.189 310.959 259.403C310.833 259.618 310.764 259.861 310.759 260.11C310.873 261.139 310.574 262.171 309.929 262.982C309.283 263.793 308.344 264.316 307.314 264.438C306.284 264.559 305.248 264.27 304.43 263.632C303.613 262.995 303.081 262.06 302.951 261.033L300.56 262.429C303.632 266.047 301.586 271.596 298.047 274.023C294.088 276.738 288.239 277.21 283.777 275.522C282.682 275.146 281.677 274.548 280.824 273.767C279.971 272.985 279.289 272.037 278.819 270.98C278.384 270.026 278.26 268.959 278.465 267.93C278.669 266.901 279.191 265.963 279.958 265.246C280.622 264.59 281.516 264.218 282.45 264.209C283.384 264.199 284.285 264.551 284.964 265.193C285.702 265.946 286.244 266.869 286.542 267.881C286.84 268.892 286.883 269.961 286.67 270.994C286.21 273.867 284.619 276.517 283.139 278.971C281.45 281.767 279.539 284.425 277.425 286.917C276.24 288.317 278.284 290.335 279.482 288.92L279.482 288.92Z" fill="#6C63FF"/>
<path d="M304.98 357.111C305.228 357.365 305.455 357.638 305.66 357.928L337.473 357.151L341.185 350.379L352.152 354.636L346.748 367.263C346.312 368.283 345.556 369.134 344.593 369.688C343.631 370.243 342.515 370.471 341.412 370.337L305.469 366.002C304.621 367.073 303.466 367.862 302.158 368.263C300.851 368.663 299.452 368.657 298.148 368.244C296.844 367.832 295.697 367.032 294.859 365.953C294.021 364.873 293.532 363.564 293.457 362.201C293.382 360.837 293.725 359.482 294.44 358.318C295.154 357.153 296.207 356.233 297.458 355.681C298.709 355.128 300.099 354.969 301.442 355.225C302.786 355.48 304.02 356.138 304.98 357.111Z" fill="#FFB7B7"/>
<path d="M408.688 550.044H398.228L393.251 509.753L408.69 509.754L408.688 550.044Z" fill="#FFB7B7"/>
<path d="M411.356 560.17L377.627 560.169V559.743C377.627 556.266 379.01 552.932 381.472 550.473C383.934 548.015 387.273 546.633 390.755 546.633H390.756L411.356 546.634L411.356 560.17Z" fill="#2F2E41"/>
<path d="M313.703 549.812L304.083 545.708L315.357 506.704L329.554 512.761L313.703 549.812Z" fill="#FFB7B7"/>
<path d="M312.173 560.17L281.156 546.938L281.323 546.546C282.691 543.349 285.275 540.825 288.506 539.53C291.737 538.235 295.351 538.275 298.553 539.64L298.554 539.641L317.498 547.722L312.173 560.17Z" fill="#2F2E41"/>
<path d="M357.843 365.839L357.086 378.08L379.198 380.442L402.333 382.915L395.523 364.328L357.843 365.839Z" fill="#FFB7B7"/>
<path d="M356.39 378.237L347.8 318.44L362.689 313.568L367.061 307.579L388.341 308.837L391.465 315.825L402.812 321.179L401.068 353.518L402.34 380.57L356.39 378.237Z" fill="#2F2E41"/>
<path d="M350.984 362.212L335.84 356.162L335.904 355.893C335.969 355.622 342.415 328.725 343.271 324.403C344.162 319.9 347.419 318.655 347.558 318.605L347.659 318.568L353.652 320.389L356.284 341.041L350.984 362.212Z" fill="#2F2E41"/>
<path d="M321.494 542.731L301.335 538.602L333.555 449.823L344.582 419.541C344.582 419.541 351.576 395.262 354.735 385.866L356.642 373.259L401.784 378.249C401.784 378.249 414.392 396.738 410.562 426.876L412.294 540.15L392.136 541.182L375.25 426.94L345.615 489.567C345.615 489.567 336.275 516.292 329.592 522.085L321.494 542.731Z" fill="#2F2E41"/>
<path d="M383.681 382.453C384.036 382.445 384.391 382.464 384.743 382.512L405.803 358.687L403.353 351.365L413.936 346.229L419.534 358.771C419.987 359.784 420.098 360.916 419.851 361.998C419.604 363.079 419.012 364.052 418.164 364.769L390.542 388.141C390.753 389.49 390.547 390.872 389.952 392.102C389.357 393.332 388.401 394.352 387.212 395.026C386.022 395.7 384.655 395.997 383.293 395.876C381.93 395.756 380.636 395.224 379.584 394.352C378.532 393.479 377.77 392.307 377.401 390.992C377.032 389.677 377.072 388.281 377.517 386.989C377.962 385.697 378.79 384.572 379.891 383.761C380.992 382.951 382.314 382.495 383.681 382.453Z" fill="#FFB7B7"/>
<path d="M404.122 361.006L395.337 340.371L398.763 325.997L402.455 321.34C402.725 321.225 403.017 321.166 403.311 321.169C403.605 321.172 403.895 321.235 404.163 321.356C405.525 321.903 406.684 323.58 407.61 326.341L415.843 349.758L404.122 361.006Z" fill="#2F2E41"/>
<path d="M358.544 299.933V284.376C358.544 278.848 360.743 273.545 364.658 269.636C368.573 265.726 373.883 263.53 379.419 263.53C384.956 263.53 390.266 265.726 394.181 269.636C398.096 273.545 400.295 278.848 400.295 284.376V299.933C400.294 300.676 399.998 301.387 399.473 301.912C398.947 302.437 398.234 302.733 397.491 302.733H361.348C360.604 302.732 359.891 302.437 359.366 301.912C358.84 301.387 358.544 300.676 358.544 299.933Z" fill="#2F2E41"/>
<path d="M375.13 302.371C383.582 302.371 390.435 295.528 390.435 287.087C390.435 278.647 383.582 271.804 375.13 271.804C366.677 271.804 359.824 278.647 359.824 287.087C359.824 295.528 366.677 302.371 375.13 302.371Z" fill="#FFB7B7"/>
<path d="M353.605 285.621C353.61 281.249 355.351 277.057 358.447 273.966C361.543 270.874 365.74 269.136 370.118 269.131H373.234C377.613 269.136 381.81 270.874 384.906 273.966C388.002 277.057 389.743 281.249 389.748 285.621V285.932H383.163L380.917 279.652L380.468 285.932H377.065L375.932 282.763L375.705 285.932H353.605L353.605 285.621Z" fill="#2F2E41"/>
<path d="M373.623 304.483C373.314 304.065 373.13 303.568 373.091 303.05C373.052 302.532 373.16 302.013 373.404 301.554C376.706 295.282 381.329 283.694 375.192 276.548L374.751 276.034H392.566V302.742L376.383 305.594C376.219 305.623 376.053 305.637 375.886 305.637C375.445 305.637 375.009 305.533 374.616 305.332C374.222 305.131 373.882 304.84 373.623 304.483Z" fill="#2F2E41"/>
<path d="M165.814 541.244L175.267 544.617L192.798 509.811L178.845 504.832L165.814 541.244Z" fill="#9F616A"/>
<path d="M160.127 549.534L164.506 537.301L183.123 543.945C186.267 545.071 188.836 547.397 190.265 550.412C191.695 553.427 191.868 556.885 190.748 560.027L190.61 560.412L160.127 549.534Z" fill="#2F2E41"/>
<path d="M227.288 550.581L237.327 550.58L242.103 511.913L227.286 511.913L227.288 550.581Z" fill="#9F616A"/>
<path d="M224.727 547.308L244.498 547.307H244.498C246.153 547.307 247.791 547.632 249.32 548.265C250.849 548.897 252.238 549.824 253.408 550.992C254.578 552.16 255.506 553.547 256.139 555.074C256.772 556.6 257.098 558.236 257.098 559.888V560.297L224.728 560.299L224.727 547.308Z" fill="#2F2E41"/>
<path d="M204.408 303.543L208.774 294.928C208.774 294.928 225.039 298.997 226.518 308.41L204.408 303.543Z" fill="#F1F1F1"/>
<path d="M186.394 402.048L198.267 468.211L166.74 523.887L185.574 531.246L217.511 477.277L221.605 462.558L224.061 539.423L241.047 538.908L248.835 467.135L236.344 400.412L186.394 402.048Z" fill="#2F2E41"/>
<path d="M208.932 417.689C191.489 417.689 180.415 414.357 180.166 414.305L179.765 414.219L188.85 372.156L189.259 333.356C189.259 316.914 200.096 304.792 201.6 303.673C201.853 302.675 202.321 301.745 202.972 300.946C203.623 300.147 204.44 299.5 205.367 299.05C208.982 297.412 213.399 299.377 213.585 299.462L226.843 304.426L226.906 304.609C227.065 305.08 244.528 362.327 244.528 362.327C244.528 362.327 243.471 412.345 243.103 413.984C243.103 413.984 218.624 417.689 208.932 417.689Z" fill="#3F3D56"/>
<path d="M222.335 292.215C232.232 292.215 240.254 284.204 240.254 274.321C240.254 264.439 232.232 256.427 222.335 256.427C212.439 256.427 204.416 264.439 204.416 274.321C204.416 284.204 212.439 292.215 222.335 292.215Z" fill="#9F616A"/>
<path opacity="0.2" d="M202.355 336.529L233.705 380.207L238.335 359.81L202.355 336.529Z" fill="black"/>
<path d="M300.643 366.248C299.761 366.945 298.737 367.44 297.643 367.698C296.549 367.957 295.412 367.973 294.311 367.745C293.21 367.517 292.173 367.051 291.272 366.379C290.371 365.708 289.629 364.847 289.097 363.858L262.113 368.171L267.959 355.248L292.687 353.134C294.41 352.352 296.361 352.228 298.169 352.786C299.977 353.345 301.518 354.546 302.499 356.162C303.479 357.779 303.832 359.699 303.49 361.558C303.148 363.416 302.135 365.086 300.643 366.248H300.643Z" fill="#9F616A"/>
<path d="M269.349 354.512L279.044 353.563L281.731 367.069L269.531 367.284L269.349 354.512Z" fill="#F1F1F1"/>
<path d="M277.297 371.775L229.812 367.553L205.836 329.475L205.762 329.139C205.081 326.028 205.558 322.777 207.102 319.991C208.647 317.206 211.153 315.077 214.155 314.002C217.156 312.927 220.446 312.98 223.411 314.15C226.377 315.32 228.814 317.528 230.269 320.361L244.343 347.777L272.749 352.064L277.297 371.775Z" fill="#3F3D56"/>
<path d="M207.072 289.857L221.945 290.39C222.852 290.423 225.312 280.653 225.634 278.626C225.889 277.306 226.616 276.124 227.679 275.301C228.742 274.477 230.07 274.069 231.413 274.151C232.526 274.256 235.334 272.179 238.231 269.719C243.731 265.05 243.444 256.28 237.403 252.335C237.238 252.227 237.076 252.129 236.917 252.039C233.105 249.909 228.646 249.194 224.279 249.139C220.319 249.09 216.248 249.587 212.76 251.459C206.507 254.814 203.179 262.145 202.886 269.228C202.594 276.311 204.868 283.236 207.448 289.84" fill="#2F2E41"/>
<path d="M579.911 561H0.77882C0.572264 561 0.374168 560.918 0.228111 560.772C0.0820535 560.626 0 560.429 0 560.222C0 560.016 0.0820535 559.818 0.228111 559.672C0.374168 559.527 0.572264 559.445 0.77882 559.445H580.221C580.428 559.445 580.626 559.527 580.772 559.672C580.918 559.818 581 560.016 581 560.222C581 560.652 580.342 561 579.911 561Z" fill="#CBCBCB"/>
</g>
<defs>
<clipPath id="clip0">
<rect width="581" height="561" fill="white"/>
</clipPath>
</defs>
</svg>
