<svg width="551" height="338" viewBox="0 0 601 388" fill="none" xmlns="http://www.w3.org/2000/svg">
<g clip-path="url(#clip0)">
<path d="M453.949 308.98C452.304 297.923 451.869 286.72 452.652 275.569L453.949 257.114C446.805 271.294 448.42 289.958 453.949 308.98V308.98Z" fill="#CACACA"/>
<path d="M459.519 312.068C458.727 305.469 458.518 298.814 458.895 292.18L459.519 281.195C456.082 289.635 456.859 300.745 459.519 312.068Z" fill="#CACACA"/>
<path d="M484.279 325.653V331.828C484.276 332.318 484.08 332.788 483.732 333.135C483.384 333.481 482.914 333.677 482.422 333.68H479.327C479.246 333.68 479.165 333.695 479.09 333.726C479.015 333.757 478.947 333.803 478.889 333.86C478.831 333.918 478.786 333.986 478.755 334.061C478.724 334.136 478.708 334.216 478.708 334.297V384.929C478.706 385.42 478.509 385.889 478.162 386.236C477.814 386.583 477.343 386.779 476.852 386.782H439.098C438.605 386.781 438.133 386.586 437.785 386.239C437.437 385.891 437.241 385.42 437.241 384.929V334.297C437.24 334.134 437.175 333.977 437.059 333.861C436.943 333.746 436.786 333.681 436.622 333.68H432.909C432.416 333.68 431.944 333.484 431.596 333.137C431.248 332.79 431.052 332.319 431.052 331.828V325.653C431.051 325.41 431.099 325.169 431.192 324.944C431.286 324.719 431.422 324.515 431.595 324.342C431.767 324.17 431.972 324.034 432.198 323.941C432.423 323.848 432.665 323.8 432.909 323.801H482.422C482.914 323.802 483.385 323.998 483.733 324.345C484.081 324.692 484.277 325.162 484.279 325.653Z" fill="#F2F2F2"/>
<path d="M478.764 334.977H437.297V336.829H478.764V334.977Z" fill="#E6E6E6"/>
<path d="M478.708 362.234C464.832 367.963 450.805 368.026 436.622 362.234V349.184C450.276 344.609 465.054 344.609 478.708 349.184V362.234Z" fill="#E6E6E6"/>
<path d="M279.429 154.6C291.87 154.6 301.955 144.539 301.955 132.127C301.955 119.716 291.87 109.654 279.429 109.654C266.988 109.654 256.903 119.716 256.903 132.127C256.903 144.539 266.988 154.6 279.429 154.6Z" fill="#2F2E41"/>
<path d="M285.705 110.273C289.603 110.274 293.435 111.283 296.825 113.203C300.215 115.124 303.048 117.889 305.046 121.228C307.044 124.567 308.14 128.367 308.226 132.255C308.311 136.144 307.384 139.988 305.535 143.411C307.488 140.974 308.91 138.157 309.711 135.14C310.513 132.124 310.676 128.974 310.189 125.891C309.703 122.808 308.578 119.861 306.887 117.236C305.196 114.61 302.975 112.366 300.366 110.644C297.757 108.923 294.817 107.762 291.733 107.237C288.65 106.712 285.491 106.833 282.457 107.593C279.423 108.353 276.582 109.736 274.113 111.652C271.644 113.568 269.603 115.977 268.118 118.724C270.224 116.086 272.899 113.957 275.944 112.494C278.989 111.031 282.325 110.271 285.705 110.273Z" fill="#2F2E41"/>
<path d="M237.336 132.08C273.881 132.08 303.506 102.524 303.506 66.0655C303.506 29.6069 273.881 0.0513916 237.336 0.0513916C200.792 0.0513916 171.166 29.6069 171.166 66.0655C171.166 102.524 200.792 132.08 237.336 132.08Z" fill="#2F2E41"/>
<path d="M185.404 25.1069C196.805 12.3145 212.743 4.44173 229.853 3.1503C246.962 1.85887 263.906 7.24979 277.107 18.1853C276.566 17.6721 276.03 17.1548 275.468 16.6562C262.351 5.03268 245.143 -0.917951 227.629 0.112694C210.115 1.14334 193.729 9.07088 182.072 22.1523C170.416 35.2336 164.443 52.3979 165.469 69.8711C166.495 87.3443 174.434 103.696 187.541 115.331C188.103 115.829 188.681 116.299 189.255 116.775C176.823 104.977 169.472 88.821 168.753 71.7178C168.035 54.6146 174.005 37.9019 185.404 25.1069Z" fill="#2F2E41"/>
<path d="M236.776 131.52C260.313 131.52 279.393 112.484 279.393 89.0027C279.393 65.5209 260.313 46.4851 236.776 46.4851C213.238 46.4851 194.158 65.5209 194.158 89.0027C194.158 112.484 213.238 131.52 236.776 131.52Z" fill="#FFB8B8"/>
<path d="M258.546 143.062L212.939 145.108C212.939 145.108 216.746 168.638 192.072 170.876C167.399 173.114 144.968 166.4 135.996 183.184C127.024 199.967 130.891 259.728 130.891 259.728C130.891 259.728 147.714 320.147 161.172 329.098C174.631 338.05 292.391 325.742 292.391 325.742L341.674 263.66L340.005 215.783C339.133 190.781 316.253 172.01 291.609 176.637C291.126 176.728 290.638 176.825 290.148 176.93C290.148 176.93 284.734 172.894 269.88 165.484C260.796 160.953 258.546 143.062 258.546 143.062Z" fill="#CACACA"/>
<path d="M159.548 169.757C159.548 169.757 170.388 189.379 165.902 217.351C161.416 245.323 180.238 304.483 180.238 304.483L193.697 301.126C193.697 301.126 184.724 242.944 186.967 229.518C189.211 216.091 189.829 176.47 178.614 169.757C167.399 163.044 159.548 169.757 159.548 169.757Z" fill="#2F2E41"/>
<path d="M289.359 180.045L294.073 303.924L303.045 309.518C303.045 309.518 315.943 173.574 309.213 173.574H295.521C294.711 173.574 293.909 173.733 293.16 174.042C292.411 174.352 291.731 174.805 291.158 175.377C290.585 175.948 290.13 176.627 289.82 177.374C289.51 178.121 289.351 178.921 289.351 179.73C289.351 179.835 289.353 179.94 289.359 180.045Z" fill="#2F2E41"/>
<path d="M186.407 301.686C189.504 301.686 192.014 299.181 192.014 296.091C192.014 293.002 189.504 290.497 186.407 290.497C183.31 290.497 180.799 293.002 180.799 296.091C180.799 299.181 183.31 301.686 186.407 301.686Z" fill="#6C63FF"/>
<path d="M298.559 307.28C301.656 307.28 304.167 304.776 304.167 301.686C304.167 298.596 301.656 296.091 298.559 296.091C295.462 296.091 292.951 298.596 292.951 301.686C292.951 304.776 295.462 307.28 298.559 307.28Z" fill="#6C63FF"/>
<path d="M200.326 35.8552V78.3729H210.196L222.757 64.9462L221.074 78.3729H264.701L262.01 64.9462L267.393 78.3729H274.346V35.8552H200.326Z" fill="#2F2E41"/>
<path d="M193.597 86.2054C195.455 86.2054 196.961 83.4502 196.961 80.0516C196.961 76.6529 195.455 73.8977 193.597 73.8977C191.739 73.8977 190.232 76.6529 190.232 80.0516C190.232 83.4502 191.739 86.2054 193.597 86.2054Z" fill="#FFB8B8"/>
<path d="M279.954 86.2054C281.812 86.2054 283.319 83.4502 283.319 80.0516C283.319 76.6529 281.812 73.8977 279.954 73.8977C278.096 73.8977 276.59 76.6529 276.59 80.0516C276.59 83.4502 278.096 86.2054 279.954 86.2054Z" fill="#FFB8B8"/>
<path d="M373.301 375.691V379.439C373.303 380.467 373.112 381.487 372.737 382.446C372.571 382.873 372.37 383.286 372.137 383.681C371.399 384.916 370.353 385.939 369.1 386.649C367.846 387.359 366.43 387.732 364.989 387.731H88.6114C87.1702 387.732 85.7536 387.359 84.5004 386.649C83.2472 385.939 82.2005 384.916 81.4629 383.681C81.2296 383.286 81.0288 382.873 80.8625 382.446C80.4883 381.487 80.2972 380.467 80.2993 379.439V375.691C80.299 374.602 80.5137 373.524 80.931 372.518C81.3484 371.512 81.9602 370.598 82.7317 369.828C83.5031 369.058 84.419 368.447 85.4271 368.03C86.4352 367.613 87.5157 367.399 88.6069 367.398H104.542V365.651C104.542 365.605 104.551 365.561 104.568 365.519C104.586 365.477 104.611 365.439 104.643 365.407C104.675 365.374 104.713 365.349 104.755 365.332C104.797 365.314 104.842 365.305 104.888 365.305H113.201C113.293 365.305 113.381 365.341 113.446 365.406C113.511 365.47 113.547 365.558 113.548 365.65V367.398H118.74V365.651C118.74 365.605 118.749 365.561 118.766 365.519C118.784 365.477 118.809 365.439 118.841 365.407C118.873 365.374 118.911 365.349 118.953 365.332C118.995 365.314 119.04 365.305 119.086 365.305H127.399C127.491 365.305 127.579 365.341 127.644 365.406C127.709 365.47 127.745 365.558 127.745 365.65V367.398H132.944V365.651C132.944 365.606 132.953 365.561 132.97 365.519C132.988 365.477 133.013 365.439 133.045 365.407C133.077 365.374 133.115 365.349 133.157 365.332C133.199 365.314 133.244 365.305 133.29 365.305H141.603C141.695 365.305 141.783 365.341 141.848 365.406C141.913 365.47 141.949 365.558 141.95 365.65V367.398H147.142V365.651C147.142 365.606 147.151 365.561 147.168 365.519C147.186 365.477 147.211 365.439 147.243 365.407C147.275 365.374 147.313 365.349 147.355 365.332C147.397 365.314 147.442 365.305 147.488 365.305H155.801C155.893 365.305 155.981 365.341 156.046 365.406C156.111 365.47 156.147 365.558 156.148 365.65V367.398H161.34V365.651C161.34 365.606 161.349 365.561 161.366 365.519C161.384 365.477 161.409 365.439 161.441 365.407C161.473 365.375 161.511 365.349 161.553 365.332C161.595 365.314 161.64 365.305 161.686 365.305H169.999C170.091 365.305 170.179 365.341 170.244 365.406C170.309 365.47 170.345 365.558 170.345 365.65V367.398H175.544V365.651C175.544 365.606 175.553 365.561 175.57 365.519C175.588 365.477 175.613 365.439 175.645 365.407C175.677 365.375 175.715 365.349 175.757 365.332C175.799 365.314 175.844 365.305 175.89 365.305H184.203C184.295 365.305 184.383 365.341 184.448 365.406C184.513 365.47 184.549 365.558 184.55 365.65V367.398H189.742V365.651C189.742 365.606 189.751 365.561 189.768 365.519C189.786 365.477 189.811 365.439 189.843 365.407C189.875 365.375 189.913 365.349 189.955 365.332C189.997 365.314 190.042 365.305 190.088 365.305H255.199C255.244 365.305 255.289 365.314 255.331 365.331C255.373 365.348 255.412 365.374 255.444 365.406C255.476 365.438 255.502 365.476 255.519 365.518C255.536 365.56 255.545 365.604 255.546 365.65V367.398H260.744V365.651C260.744 365.606 260.753 365.561 260.771 365.519C260.788 365.477 260.813 365.439 260.845 365.407C260.877 365.375 260.916 365.349 260.958 365.332C260.999 365.314 261.044 365.305 261.09 365.305H269.403C269.495 365.306 269.582 365.343 269.647 365.407C269.712 365.472 269.749 365.559 269.75 365.651V367.398H274.942V365.651C274.942 365.606 274.951 365.561 274.968 365.519C274.986 365.477 275.011 365.439 275.043 365.407C275.075 365.375 275.113 365.349 275.155 365.332C275.197 365.314 275.242 365.305 275.288 365.305H283.601C283.646 365.305 283.691 365.314 283.733 365.331C283.775 365.348 283.814 365.374 283.846 365.406C283.878 365.438 283.904 365.476 283.921 365.518C283.939 365.56 283.948 365.604 283.948 365.65V367.398H289.14V365.651C289.14 365.606 289.149 365.561 289.166 365.519C289.184 365.477 289.209 365.439 289.241 365.407C289.273 365.375 289.311 365.349 289.353 365.332C289.395 365.314 289.44 365.305 289.486 365.305H297.799C297.844 365.305 297.889 365.314 297.931 365.331C297.973 365.348 298.012 365.374 298.044 365.406C298.076 365.438 298.102 365.476 298.119 365.518C298.136 365.56 298.145 365.604 298.146 365.65V367.398H303.344V365.651C303.344 365.606 303.353 365.561 303.371 365.519C303.388 365.477 303.413 365.439 303.445 365.407C303.477 365.375 303.516 365.349 303.558 365.332C303.599 365.314 303.644 365.305 303.69 365.305H312.003C312.094 365.306 312.181 365.343 312.245 365.408C312.308 365.473 312.344 365.56 312.343 365.651V367.398H317.542V365.651C317.542 365.606 317.551 365.561 317.568 365.519C317.586 365.477 317.611 365.439 317.643 365.407C317.675 365.375 317.714 365.349 317.755 365.332C317.797 365.314 317.842 365.305 317.888 365.305H326.201C326.246 365.305 326.291 365.314 326.333 365.331C326.375 365.348 326.414 365.374 326.446 365.406C326.478 365.438 326.504 365.476 326.521 365.518C326.539 365.56 326.548 365.604 326.548 365.65V367.398H331.74V365.651C331.74 365.606 331.749 365.561 331.766 365.519C331.784 365.477 331.809 365.439 331.841 365.407C331.873 365.375 331.911 365.349 331.953 365.332C331.995 365.314 332.04 365.305 332.086 365.305H340.399C340.444 365.305 340.489 365.314 340.531 365.331C340.573 365.349 340.612 365.374 340.644 365.406C340.676 365.438 340.702 365.476 340.719 365.518C340.736 365.56 340.745 365.604 340.746 365.65V367.398H364.988C367.192 367.398 369.306 368.271 370.865 369.825C372.424 371.379 373.3 373.488 373.301 375.686L373.301 375.691Z" fill="#3F3D56"/>
<path d="M601 386.765H0V388H601V386.765Z" fill="#3F3D56"/>
<path d="M351.046 217.847H97.8821C96.967 217.847 96.0609 218.027 95.2155 218.376C94.3701 218.726 93.6019 219.238 92.9549 219.883C92.3078 220.529 91.7945 221.295 91.4444 222.138C91.0942 222.982 90.9139 223.886 90.9139 224.799V365.525C90.9139 367.369 91.6481 369.137 92.9548 370.44C94.2616 371.744 96.034 372.477 97.8821 372.477H351.046C352.894 372.477 354.666 371.744 355.973 370.44C357.28 369.137 358.014 367.369 358.014 365.525V224.799C358.014 222.955 357.28 221.187 355.973 219.883C354.666 218.579 352.894 217.847 351.046 217.847Z" fill="#3F3D56"/>
<path d="M224.667 282.414C233.212 282.414 240.14 275.503 240.14 266.978C240.14 258.453 233.212 251.542 224.667 251.542C216.121 251.542 209.194 258.453 209.194 266.978C209.194 275.503 216.121 282.414 224.667 282.414Z" fill="#6C63FF"/>
<path d="M320.452 164.997L398.563 86.4542H435.44V85.2192H398.046L397.865 85.4026L319.572 164.129L320.452 164.997Z" fill="#3F3D56"/>
<path d="M570.983 54.2081H480.482V62.2535H570.983V54.2081Z" fill="#6C63FF"/>
<path d="M469.452 67.3407H450.294V48.2269H469.452V67.3407ZM451.532 66.1058H468.215V49.4618H451.532L451.532 66.1058Z" fill="#3F3D56"/>
<path d="M570.983 81.0261H480.482V89.0715H570.983V81.0261Z" fill="#6C63FF"/>
<path d="M469.452 94.1587H450.294V75.0452H469.452V94.1587ZM451.532 92.9238H468.215V76.2801H451.532L451.532 92.9238Z" fill="#3F3D56"/>
<path d="M570.983 107.844H480.482V115.89H570.983V107.844Z" fill="#6C63FF"/>
<path d="M469.452 120.977H450.294V101.863H469.452V120.977ZM451.532 119.742H468.215V103.098H451.532L451.532 119.742Z" fill="#3F3D56"/>
</g>
<defs>
<clipPath id="clip0">
<rect width="601" height="388" fill="white"/>
</clipPath>
</defs>
</svg>
